<svg width="230" height="313" viewBox="0 0 230 313" fill="none" xmlns="http://www.w3.org/2000/svg">
<path d="M107.59 262.337C107.59 266.354 110.855 269.618 114.874 269.618C118.893 269.618 122.158 266.354 122.158 262.337C122.158 258.32 118.893 255.056 114.874 255.056C110.855 255.056 107.59 258.32 107.59 262.337Z" fill="#004638"/>
<path d="M15.7831 305.481V274.389C15.7831 271.711 17.96 269.534 20.6393 269.534H87.7889C91.5985 269.534 94.7383 266.438 94.7383 262.588V261.835C94.7383 258.027 91.6404 254.888 87.7889 254.888H8.79181C4.9822 254.888 1.88428 257.985 1.88428 261.793V305.272C1.88428 305.774 1.92614 306.234 2.05173 306.736C2.67969 310 5.52643 312.344 8.83368 312.344C12.6433 312.344 15.7831 309.247 15.7831 305.397V305.481Z" fill="#004638"/>
<path d="M135.304 261.918V262.797C135.304 266.563 138.36 269.66 142.169 269.66H168.585C171.223 269.66 173.358 271.794 173.358 274.431V305.272C173.358 309.038 176.414 312.134 180.349 312.134C184.284 312.134 187.215 309.08 187.215 305.272V274.431C187.215 271.794 189.35 269.66 191.987 269.66H209.445C212.082 269.66 214.217 271.794 214.217 274.431V305.272C214.217 309.038 217.273 312.134 221.083 312.134C224.892 312.134 227.948 309.08 227.948 305.272V261.918C227.948 258.152 224.892 255.056 221.083 255.056H142.253C138.485 255.056 135.387 258.11 135.387 261.918H135.304Z" fill="#004638"/>
<path d="M115 14.6463C170.344 14.6463 215.348 59.6315 215.348 114.953C215.348 170.274 170.344 215.259 115 215.259C59.656 215.259 14.6523 170.274 14.6523 114.953C14.6523 59.6315 59.656 14.6463 115 14.6463ZM115 0C51.4925 0 0 51.4714 0 114.953C0 178.434 51.4925 229.906 115 229.906C178.507 229.906 230 178.434 230 114.953C230 51.4714 178.507 0 115 0Z" fill="#004638"/>
<path d="M64.2612 172.994C62.3774 172.994 60.4935 172.283 59.0701 170.86C56.2234 168.014 56.2234 163.369 59.0701 160.524L160.59 59.0457C163.437 56.2001 168.084 56.2001 170.93 59.0457C173.777 61.8913 173.777 66.5362 170.93 69.3818L69.4105 170.86C67.9871 172.283 66.1032 172.994 64.2194 172.994H64.2612Z" fill="#004638"/>
</svg>
