<svg width="59" height="230" viewBox="0 0 59 230" fill="none" xmlns="http://www.w3.org/2000/svg">
<path d="M7.62567 122.474C11.7155 122.474 15.0384 119.152 15.0384 115.064C15.0384 110.976 11.7155 107.654 7.62567 107.654C3.53586 107.654 0.212891 110.976 0.212891 115.064C0.212891 119.152 3.53586 122.474 7.62567 122.474Z" fill="#004638"/>
<path d="M51.506 215.862H19.8526C17.1261 215.862 14.9108 213.648 14.9108 210.922V142.616C14.9108 138.741 11.7582 135.547 7.8388 135.547H7.07196C3.19516 135.547 0 138.698 0 142.616V222.974C0 226.849 3.15256 230 7.02936 230H51.293C51.8043 230 52.2729 229.958 52.7841 229.83C56.1071 229.191 58.4928 226.295 58.4928 222.931C58.4928 219.056 55.3402 215.862 51.4208 215.862H51.506Z" fill="#004638"/>
<path d="M7.15742 94.24H8.05206C11.8863 94.24 15.0388 91.1313 15.0388 87.2561V60.3851C15.0388 57.7023 17.2115 55.5304 19.8955 55.5304H51.2933C55.1275 55.5304 58.28 52.4218 58.28 48.4188C58.28 44.4158 55.1701 41.4349 51.2933 41.4349H19.8955C17.2115 41.4349 15.0388 39.2631 15.0388 36.5803V18.8224C15.0388 16.1395 17.2115 13.9678 19.8955 13.9678H51.2933C55.1275 13.9678 58.28 10.859 58.28 6.98383C58.28 3.10862 55.1701 0 51.2933 0H7.15742C3.32322 0 0.170654 3.10862 0.170654 6.98383V87.1709C0.170654 91.0036 3.28062 94.1548 7.15742 94.1548V94.24Z" fill="#004638"/>
</svg>
