<svg width="230" height="170" viewBox="0 0 230 170" fill="none" xmlns="http://www.w3.org/2000/svg">
<path d="M193.176 90.0649C196.134 90.0649 198.538 87.6624 198.538 84.7054C198.538 81.7484 196.134 79.3458 193.176 79.3458C190.218 79.3458 187.814 81.7484 187.814 84.7054C187.814 87.6624 190.218 90.0649 193.176 90.0649Z" fill="#004638"/>
<path d="M224.947 157.613H202.051C200.079 157.613 198.477 156.012 198.477 154.04V104.634C198.477 101.831 196.197 99.521 193.362 99.521H192.807C190.003 99.521 187.692 101.8 187.692 104.634V162.757C187.692 165.56 189.972 167.84 192.776 167.84H224.793C225.162 167.84 225.501 167.809 225.871 167.716C228.275 167.254 230 165.16 230 162.727C230 159.924 227.72 157.613 224.885 157.613H224.947Z" fill="#004638"/>
<path d="M192.868 69.6432H193.515C196.288 69.6432 198.569 67.3947 198.569 64.5917V45.1557C198.569 43.2151 200.14 41.6443 202.082 41.6443H224.792C227.565 41.6443 229.846 39.3957 229.846 36.5003C229.846 33.6049 227.596 31.4488 224.792 31.4488H202.082C200.14 31.4488 198.569 29.8779 198.569 27.9374V15.093C198.569 13.1525 200.14 11.5815 202.082 11.5815H224.792C227.565 11.5815 229.846 9.33301 229.846 6.53003C229.846 3.72706 227.596 1.47852 224.792 1.47852H192.868C190.095 1.47852 187.814 3.72706 187.814 6.53003V64.5301C187.814 67.3023 190.064 69.5816 192.868 69.5816V69.6432Z" fill="#004638"/>
<path d="M84.6476 10.7807C125.385 10.7807 158.51 43.8928 158.51 84.6129C158.51 125.333 125.385 158.445 84.6476 158.445C43.9108 158.445 10.7851 125.333 10.7851 84.6129C10.7851 43.8928 43.9108 10.7807 84.6476 10.7807ZM84.6476 0C37.9019 0 0 37.8864 0 84.6129C0 131.339 37.9019 169.226 84.6476 169.226C131.393 169.226 169.295 131.339 169.295 84.6129C169.295 37.8864 131.393 0 84.6476 0Z" fill="#004638"/>
<path d="M47.2695 127.335C45.8828 127.335 44.4962 126.812 43.4485 125.764C41.3531 123.67 41.3531 120.251 43.4485 118.156L118.174 43.4615C120.269 41.367 123.69 41.367 125.785 43.4615C127.88 45.5561 127.88 48.9751 125.785 51.0696L51.0597 125.764C50.012 126.812 48.6253 127.335 47.2387 127.335H47.2695Z" fill="#004638"/>
</svg>
