<svg width="496" height="264" viewBox="0 0 496 264" fill="none" xmlns="http://www.w3.org/2000/svg">
<path d="M8.54807 140.365C13.1584 140.365 16.9042 136.62 16.9042 132.012C16.9042 127.404 13.1584 123.659 8.54807 123.659C3.93776 123.659 0.191895 127.404 0.191895 132.012C0.191895 136.62 3.93776 140.365 8.54807 140.365Z" fill="#004638"/>
<path d="M86.6834 164.415C82.0731 164.415 78.3271 168.159 78.3271 172.768C78.3271 177.376 82.0731 181.12 86.6834 181.12C91.2937 181.12 95.0395 177.376 95.0395 172.768C95.0395 168.159 91.2937 164.415 86.6834 164.415Z" fill="#004638"/>
<path d="M359.844 164.415C355.234 164.415 351.488 168.159 351.488 172.768C351.488 177.376 355.234 181.12 359.844 181.12C364.454 181.12 368.2 177.376 368.2 172.768C368.2 168.159 364.454 164.415 359.844 164.415Z" fill="#004638"/>
<path d="M58.0611 245.638H22.3792C19.3057 245.638 16.8084 243.142 16.8084 240.07V163.071C16.8084 158.702 13.2546 155.102 8.83641 155.102H7.97197C3.60178 155.102 0 158.654 0 163.071V253.655C0 258.023 3.55379 261.576 7.92398 261.576H57.821C58.3973 261.576 58.9255 261.528 59.5018 261.384C63.2477 260.664 65.937 257.399 65.937 253.607C65.937 249.239 62.3832 245.638 57.965 245.638H58.0611Z" fill="#004638"/>
<path d="M87.0196 188.561C82.6013 188.561 78.9995 192.161 78.9995 196.578V253.511C78.9995 257.927 82.6013 261.528 87.0196 261.528C91.4378 261.528 95.0396 257.927 95.0396 253.511V196.578C95.0396 192.161 91.4378 188.561 87.0196 188.561Z" fill="#004638"/>
<path d="M167.7 188.561C164.338 188.561 161.313 190.673 160.16 193.794L147.962 226.533C146.954 229.221 144.6 230.181 142.679 230.181C140.806 230.181 138.405 229.221 137.397 226.485L125.343 193.794C124.19 190.673 121.165 188.561 117.803 188.561H117.131C114.441 188.561 111.944 189.905 110.455 192.113C108.966 194.322 108.678 197.154 109.687 199.602L132.018 254.711C133.699 258.84 137.685 261.528 142.151 261.528H142.968C147.482 261.528 151.468 258.84 153.101 254.663L175.096 199.554C176.104 197.058 175.768 194.274 174.279 192.065C172.79 189.857 170.293 188.561 167.652 188.561H167.7Z" fill="#004638"/>
<path d="M226.193 186.545C221.679 186.545 217.549 187.361 213.899 188.993C212.218 189.713 210.297 189.569 208.713 188.513C206.984 187.409 205.975 185.489 205.975 183.473V161.055C205.975 156.59 202.325 152.942 197.859 152.942C193.393 152.942 189.743 156.59 189.743 161.055V253.463C189.743 257.927 193.393 261.576 197.859 261.576C202.325 261.576 205.975 257.927 205.975 253.463V218.852C206.215 210.403 210.345 201.378 221.199 201.378C231.332 201.378 236.423 206.947 236.423 217.94V253.463C236.423 257.927 240.072 261.576 244.539 261.576C249.005 261.576 252.655 257.927 252.655 253.463V215.636C252.655 197.682 242.522 186.545 226.193 186.545Z" fill="#004638"/>
<path d="M301.495 186.401C281.901 186.401 266.534 203.298 266.534 224.852C266.534 244.198 279.164 263.736 303.272 263.736C316.383 263.736 327.332 257.639 333.383 246.934C334.392 245.158 334.536 243.046 333.815 241.126C333.095 239.254 331.606 237.766 329.685 237.094L328.437 236.661C325.363 235.605 321.761 237.046 320.129 240.022C316.719 246.07 311.1 249.143 303.32 249.143C293.907 249.143 286.32 243.334 283.966 234.309C283.678 233.253 283.918 232.197 284.543 231.381C285.167 230.613 286.079 230.133 287.04 230.133H331.03C334.104 230.133 336.649 227.637 336.649 224.516C336.649 200.994 323.202 186.353 301.543 186.353L301.495 186.401ZM318.448 215.3C317.823 216.116 316.911 216.596 315.854 216.596H287.904C286.8 216.596 285.839 216.068 285.263 215.204C284.639 214.291 284.543 213.091 284.975 212.083C287.808 205.123 294.051 200.994 301.687 200.994C310.38 200.994 316.671 205.123 318.976 212.323C319.312 213.379 319.12 214.435 318.496 215.3H318.448Z" fill="#004638"/>
<path d="M359.844 188.561C355.426 188.561 351.824 192.161 351.824 196.578V253.511C351.824 257.927 355.426 261.528 359.844 261.528C364.262 261.528 367.864 257.927 367.864 253.511V196.578C367.864 192.161 364.262 188.561 359.844 188.561Z" fill="#004638"/>
<path d="M469.531 186.545C460.022 186.545 452.29 190.145 447.152 196.962C446.768 197.442 446.288 197.49 446.095 197.49C445.663 197.49 445.279 197.25 444.991 196.866C440.717 190.337 433.321 186.593 424.773 186.593C417.905 186.593 411.326 188.993 406.668 193.218C406.091 193.746 405.467 193.506 405.275 193.458C405.083 193.362 404.555 193.074 404.555 192.305C404.555 190.817 402.153 188.657 398.456 188.657H396.054C392.164 188.657 388.947 191.825 388.947 195.762V253.607C388.947 258.023 392.549 261.624 396.967 261.624C401.385 261.624 404.987 258.023 404.987 253.607V217.892C404.987 207.907 411.134 201.186 420.21 201.186C432.216 201.186 433.993 210.547 433.993 216.116V253.607C433.993 258.023 437.595 261.624 442.157 261.624C446.72 261.624 450.177 258.023 450.177 253.607V217.748C450.177 208.003 456.373 201.186 465.257 201.186C477.263 201.186 479.04 210.547 479.04 216.116V253.607C479.04 258.023 482.642 261.624 487.06 261.624C491.478 261.624 495.08 258.023 495.08 253.607V214.675C495.08 195.282 482.258 186.641 469.531 186.641V186.545Z" fill="#004638"/>
<path d="M8.06784 108.586H9.07634C13.3985 108.586 16.9523 105.082 16.9523 100.713V70.4224C16.9523 67.3981 19.4015 64.9499 22.427 64.9499H57.8208C62.1429 64.9499 65.6967 61.4455 65.6967 56.9331C65.6967 52.4207 62.1909 49.0604 57.8208 49.0604H22.427C19.4015 49.0604 16.9523 46.6122 16.9523 43.5879V23.5701C16.9523 20.5458 19.4015 18.0976 22.427 18.0976H57.8208C62.1429 18.0976 65.6967 14.5933 65.6967 10.2249C65.6967 5.85649 62.1909 2.35217 57.8208 2.35217H8.06784C3.74567 2.35217 0.191895 5.85649 0.191895 10.2249V100.617C0.191895 104.937 3.69765 108.49 8.06784 108.49V108.586Z" fill="#004638"/>
<path d="M359.844 12.9612C355.234 12.9612 351.488 16.7055 351.488 21.3139C351.488 25.9224 355.234 29.6667 359.844 29.6667C364.454 29.6667 368.2 25.9224 368.2 21.3139C368.2 16.7055 364.454 12.9612 359.844 12.9612Z" fill="#004638"/>
<path d="M117.034 50.8846C117.899 50.0686 118.379 49.0125 118.379 47.8603V38.9795C118.379 36.8193 116.698 34.9952 114.585 34.8032C113.961 34.7552 113.289 34.7072 112.568 34.7072C105.749 34.7072 99.8898 37.0114 95.5197 41.3318C94.9914 41.8598 94.271 42.0038 93.5987 41.7158C92.9264 41.4278 92.4942 40.8037 92.4942 40.0836C92.4942 38.4035 89.9969 35.9073 86.251 35.9073H84.6182C80.104 35.9073 76.4541 39.5556 76.4541 44.068V101.241C76.4541 105.754 80.104 109.402 84.6182 109.402C89.1325 109.402 92.7823 105.754 92.7823 101.241V72.5826C92.7823 57.8453 99.8898 51.0286 113.865 52.0367C115.065 52.1327 116.17 51.7007 117.034 50.9326V50.8846Z" fill="#004638"/>
<path d="M191.952 88.8561C191.232 86.9359 189.695 85.4958 187.774 84.8237L186.477 84.3917C183.404 83.3356 179.754 84.7757 178.073 87.8C174.663 93.8966 168.948 96.9689 161.168 96.9689C151.66 96.9689 144.024 91.1123 141.671 81.9915C141.383 80.9354 141.623 79.8793 142.247 79.0152C142.871 78.2471 143.784 77.7671 144.792 77.7671H189.07C192.192 77.7671 194.737 75.2709 194.737 72.1506C194.737 48.4364 181.195 33.6991 159.392 33.6991C139.654 33.6991 124.19 50.6926 124.19 72.4386C124.19 91.9284 136.868 111.61 161.168 111.61C174.375 111.61 185.421 105.466 191.472 94.7126C192.48 92.9365 192.624 90.7763 191.904 88.9041L191.952 88.8561ZM142.727 59.5254C145.561 52.5168 151.852 48.3404 159.536 48.3404C168.276 48.3404 174.663 52.5168 176.92 59.7655C177.257 60.8216 177.064 61.9257 176.44 62.7897C175.816 63.6058 174.903 64.0859 173.847 64.0859H145.705C144.6 64.0859 143.64 63.5578 143.015 62.6457C142.391 61.7336 142.295 60.5335 142.679 59.4774L142.727 59.5254Z" fill="#004638"/>
<path d="M273.737 106.906C275.225 105.322 275.994 103.257 275.898 101.049C275.802 99.273 275.754 97.2568 275.754 95.0486V7.96872C275.754 3.55232 272.2 0 267.589 0C262.979 0 259.617 3.55232 259.617 7.96872V31.4909C259.617 33.459 258.609 35.2352 256.976 36.2913C255.391 37.2994 253.566 37.3954 251.934 36.6273C245.498 33.5551 237.046 33.171 227.489 35.4752C217.692 37.8274 210.057 44.9321 207.079 54.485C201.989 70.6144 203.813 86.8399 211.93 97.9289C218.269 106.57 227.922 111.322 239.159 111.322C247.852 111.322 255.391 107.722 260.05 101.529C260.05 101.673 260.05 101.769 260.05 101.865C260.242 106.09 263.748 109.354 268.022 109.354C270.231 109.354 272.296 108.49 273.833 106.858L273.737 106.906ZM259.762 72.1506C259.762 86.7919 251.982 96.6808 240.408 96.6808C228.834 96.6808 220.766 87.1759 220.766 72.4866C220.766 57.7973 228.738 48.7244 240.552 48.7244C252.366 48.7244 259.762 57.9413 259.762 72.1986V72.1506Z" fill="#004638"/>
<path d="M335.111 34.8032C334.487 34.7552 333.815 34.7072 333.094 34.7072C326.275 34.7072 320.368 37.0114 316.046 41.3318C315.518 41.8598 314.797 42.0038 314.125 41.7158C313.453 41.4278 313.02 40.8037 313.02 40.0836C313.02 38.0675 310.667 35.9073 306.345 35.9073H304.136C300.246 35.9073 297.028 39.0756 297.028 43.0119V101.241C297.028 105.754 300.678 109.402 305.192 109.402C309.707 109.402 313.356 105.754 313.356 101.241V72.5826C313.356 58.8533 319.504 51.8927 331.654 51.8927C332.566 51.8927 333.479 51.8927 334.439 51.9887C335.64 52.0847 336.744 51.6527 337.609 50.8846C338.473 50.0686 338.953 49.0125 338.953 47.8603V38.9795C338.953 36.8193 337.272 34.9952 335.159 34.8032H335.111Z" fill="#004638"/>
<path d="M359.316 109.402C363.782 109.402 367.384 105.802 367.384 101.337V44.0201C367.384 39.5557 363.782 35.9553 359.316 35.9553C354.85 35.9553 351.248 39.5557 351.248 44.0201V101.337C351.248 105.802 354.85 109.402 359.316 109.402Z" fill="#004638"/>
<path d="M396.582 109.402H396.87C401.241 109.402 404.794 105.85 404.794 101.481V89.5761C404.794 88.088 405.371 86.6959 406.427 85.6398L408.828 83.2396C409.981 82.0875 411.47 81.5114 413.15 81.6554C414.735 81.7994 416.224 82.5675 417.185 83.8636L433.705 106.186C435.194 108.202 437.595 109.402 440.092 109.402H440.668C443.694 109.402 446.431 107.722 447.776 105.034C449.12 102.345 448.832 99.129 447.007 96.7288L427.75 71.1425C426.117 68.9343 426.309 65.814 428.278 63.8938L442.781 49.5405C445.135 47.2363 445.807 43.924 444.558 40.8997C443.31 37.8754 440.476 36.0033 437.211 36.0033C435.097 36.0033 433.032 36.8674 431.544 38.4035L414.351 56.0211C412.43 57.9893 409.981 57.9413 408.3 57.2692C406.619 56.5971 404.842 54.869 404.842 52.1327V7.92072C404.794 3.55232 401.24 0 396.582 0C392.212 0 388.658 3.55232 388.658 7.92072V101.433C388.658 105.802 392.212 109.354 396.582 109.354V109.402Z" fill="#004638"/>
</svg>
