<svg width="230" height="59" viewBox="0 0 230 59" fill="none" xmlns="http://www.w3.org/2000/svg">
<path d="M107.546 7.57832C107.546 11.6655 110.869 14.9863 114.958 14.9863C119.046 14.9863 122.369 11.6655 122.369 7.57832C122.369 3.49111 119.046 0.170288 114.958 0.170288C110.869 0.170288 107.546 3.49111 107.546 7.57832Z" fill="#004638"/>
<path d="M14.1407 51.4733V19.84C14.1407 17.1152 16.3556 14.9013 19.0815 14.9013H87.4C91.2759 14.9013 94.4704 11.7507 94.4704 7.83381V7.06749C94.4704 3.19315 91.3185 0 87.4 0H7.02778C3.15185 0 0 3.15053 0 7.02487V51.2605C0 51.7714 0.0425924 52.2397 0.17037 52.7506C0.809259 56.0715 3.70555 58.4557 7.07037 58.4557C10.9463 58.4557 14.1407 55.3051 14.1407 51.3882V51.4733Z" fill="#004638"/>
<path d="M135.743 7.15254V8.04671C135.743 11.8785 138.852 15.029 142.728 15.029H169.604C172.287 15.029 174.459 17.2004 174.459 19.8826V51.2604C174.459 55.0922 177.569 58.2427 181.572 58.2427C185.576 58.2427 188.557 55.1348 188.557 51.2604V19.8826C188.557 17.2004 190.73 15.029 193.413 15.029H211.174C213.857 15.029 216.03 17.2004 216.03 19.8826V51.2604C216.03 55.0922 219.139 58.2427 223.015 58.2427C226.891 58.2427 230 55.1348 230 51.2604V7.15254C230 3.32078 226.891 0.170288 223.015 0.170288H142.813C138.98 0.170288 135.828 3.2782 135.828 7.15254H135.743Z" fill="#004638"/>
</svg>
