<svg width="788" height="264" viewBox="0 0 788 264" fill="none" xmlns="http://www.w3.org/2000/svg">
<path d="M301.063 140.365C305.673 140.365 309.419 136.62 309.419 132.012C309.419 127.404 305.673 123.659 301.063 123.659C296.452 123.659 292.707 127.404 292.707 132.012C292.707 136.62 296.452 140.365 301.063 140.365Z" fill="#004638"/>
<path d="M379.198 164.415C374.588 164.415 370.842 168.159 370.842 172.768C370.842 177.376 374.588 181.12 379.198 181.12C383.808 181.12 387.554 177.376 387.554 172.768C387.554 168.159 383.808 164.415 379.198 164.415Z" fill="#004638"/>
<path d="M652.359 164.415C647.748 164.415 644.002 168.159 644.002 172.768C644.002 177.376 647.748 181.12 652.359 181.12C656.969 181.12 660.715 177.376 660.715 172.768C660.715 168.159 656.969 164.415 652.359 164.415Z" fill="#004638"/>
<path d="M350.576 245.638H314.894C311.82 245.638 309.323 243.142 309.323 240.07V163.071C309.323 158.702 305.769 155.102 301.351 155.102H300.487C296.116 155.102 292.515 158.654 292.515 163.071V253.655C292.515 258.023 296.068 261.576 300.439 261.576H350.336C350.912 261.576 351.44 261.528 352.016 261.384C355.762 260.664 358.452 257.399 358.452 253.607C358.452 249.239 354.898 245.638 350.48 245.638H350.576Z" fill="#004638"/>
<path d="M379.534 188.561C375.116 188.561 371.514 192.161 371.514 196.578V253.511C371.514 257.927 375.116 261.528 379.534 261.528C383.952 261.528 387.554 257.927 387.554 253.511V196.578C387.554 192.161 383.952 188.561 379.534 188.561Z" fill="#004638"/>
<path d="M460.215 188.561C456.853 188.561 453.827 190.673 452.675 193.794L440.477 226.533C439.468 229.221 437.115 230.181 435.194 230.181C433.321 230.181 430.92 229.221 429.911 226.485L417.857 193.794C416.705 190.673 413.679 188.561 410.318 188.561H409.645C406.956 188.561 404.459 189.905 402.97 192.113C401.481 194.322 401.193 197.154 402.201 199.602L424.533 254.711C426.214 258.84 430.2 261.528 434.666 261.528H435.482C439.996 261.528 443.982 258.84 445.615 254.663L467.61 199.554C468.619 197.058 468.283 194.274 466.794 192.065C465.305 189.857 462.808 188.561 460.167 188.561H460.215Z" fill="#004638"/>
<path d="M518.708 186.545C514.194 186.545 510.064 187.361 506.414 188.993C504.733 189.713 502.812 189.569 501.227 188.513C499.498 187.409 498.49 185.489 498.49 183.473V161.055C498.49 156.59 494.84 152.942 490.374 152.942C485.908 152.942 482.258 156.59 482.258 161.055V253.463C482.258 257.927 485.908 261.576 490.374 261.576C494.84 261.576 498.49 257.927 498.49 253.463V218.852C498.73 210.403 502.86 201.378 513.714 201.378C523.847 201.378 528.937 206.947 528.937 217.94V253.463C528.937 257.927 532.587 261.576 537.053 261.576C541.519 261.576 545.169 257.927 545.169 253.463V215.636C545.169 197.682 535.036 186.545 518.708 186.545Z" fill="#004638"/>
<path d="M594.01 186.401C574.416 186.401 559.048 203.298 559.048 224.852C559.048 244.198 571.679 263.736 595.787 263.736C608.897 263.736 619.847 257.639 625.898 246.934C626.906 245.158 627.05 243.046 626.33 241.126C625.61 239.254 624.121 237.766 622.2 237.094L620.951 236.661C617.878 235.605 614.276 237.046 612.643 240.022C609.233 246.07 603.615 249.143 595.835 249.143C586.422 249.143 578.834 243.334 576.481 234.309C576.193 233.253 576.433 232.197 577.057 231.381C577.682 230.613 578.594 230.133 579.555 230.133H623.545C626.618 230.133 629.163 227.637 629.163 224.516C629.163 200.994 615.717 186.353 594.058 186.353L594.01 186.401ZM610.962 215.3C610.338 216.116 609.426 216.596 608.369 216.596H580.419C579.314 216.596 578.354 216.068 577.778 215.204C577.153 214.291 577.057 213.091 577.49 212.083C580.323 205.123 586.566 200.994 594.202 200.994C602.894 200.994 609.185 205.123 611.491 212.323C611.827 213.379 611.635 214.435 611.01 215.3H610.962Z" fill="#004638"/>
<path d="M652.358 188.561C647.94 188.561 644.338 192.161 644.338 196.578V253.511C644.338 257.927 647.94 261.528 652.358 261.528C656.777 261.528 660.378 257.927 660.378 253.511V196.578C660.378 192.161 656.777 188.561 652.358 188.561Z" fill="#004638"/>
<path d="M762.046 186.545C752.537 186.545 744.805 190.145 739.667 196.962C739.282 197.442 738.802 197.49 738.61 197.49C738.178 197.49 737.794 197.25 737.505 196.866C733.231 190.337 725.836 186.593 717.287 186.593C710.42 186.593 703.841 188.993 699.182 193.218C698.606 193.746 697.982 193.506 697.79 193.458C697.598 193.362 697.069 193.074 697.069 192.305C697.069 190.817 694.668 188.657 690.97 188.657H688.569C684.679 188.657 681.461 191.825 681.461 195.762V253.607C681.461 258.023 685.063 261.624 689.481 261.624C693.9 261.624 697.501 258.023 697.501 253.607V217.892C697.501 207.907 703.649 201.186 712.725 201.186C724.731 201.186 726.508 210.547 726.508 216.116V253.607C726.508 258.023 730.11 261.624 734.672 261.624C739.234 261.624 742.692 258.023 742.692 253.607V217.748C742.692 208.003 748.887 201.186 757.772 201.186C769.778 201.186 771.555 210.547 771.555 216.116V253.607C771.555 258.023 775.156 261.624 779.575 261.624C783.993 261.624 787.595 258.023 787.595 253.607V214.675C787.595 195.282 774.772 186.641 762.046 186.641V186.545Z" fill="#004638"/>
<path d="M300.582 108.586H301.591C305.913 108.586 309.467 105.082 309.467 100.713V70.4224C309.467 67.3981 311.916 64.9499 314.942 64.9499H350.335C354.658 64.9499 358.211 61.4455 358.211 56.9331C358.211 52.4207 354.706 49.0604 350.335 49.0604H314.942C311.916 49.0604 309.467 46.6122 309.467 43.5879V23.5701C309.467 20.5458 311.916 18.0976 314.942 18.0976H350.335C354.658 18.0976 358.211 14.5933 358.211 10.2249C358.211 5.85649 354.706 2.35217 350.335 2.35217H300.582C296.26 2.35217 292.707 5.85649 292.707 10.2249V100.617C292.707 104.937 296.212 108.49 300.582 108.49V108.586Z" fill="#004638"/>
<path d="M652.359 12.9612C647.748 12.9612 644.002 16.7055 644.002 21.3139C644.002 25.9224 647.748 29.6667 652.359 29.6667C656.969 29.6667 660.715 25.9224 660.715 21.3139C660.715 16.7055 656.969 12.9612 652.359 12.9612Z" fill="#004638"/>
<path d="M409.549 50.8846C410.414 50.0686 410.894 49.0125 410.894 47.8603V38.9795C410.894 36.8193 409.213 34.9952 407.1 34.8032C406.476 34.7552 405.803 34.7072 405.083 34.7072C398.263 34.7072 392.404 37.0114 388.034 41.3318C387.506 41.8598 386.786 42.0038 386.113 41.7158C385.441 41.4278 385.009 40.8037 385.009 40.0836C385.009 38.4035 382.512 35.9073 378.766 35.9073H377.133C372.619 35.9073 368.969 39.5556 368.969 44.068V101.241C368.969 105.754 372.619 109.402 377.133 109.402C381.647 109.402 385.297 105.754 385.297 101.241V72.5826C385.297 57.8453 392.404 51.0286 406.379 52.0367C407.58 52.1327 408.685 51.7007 409.549 50.9326V50.8846Z" fill="#004638"/>
<path d="M484.467 88.8561C483.746 86.9359 482.209 85.4958 480.288 84.8237L478.992 84.3917C475.918 83.3356 472.268 84.7757 470.588 87.8C467.178 93.8966 461.463 96.9689 453.683 96.9689C444.174 96.9689 436.539 91.1123 434.185 81.9915C433.897 80.9354 434.137 79.8793 434.762 79.0152C435.386 78.2471 436.298 77.7671 437.307 77.7671H481.585C484.707 77.7671 487.252 75.2709 487.252 72.1506C487.252 48.4364 473.709 33.6991 451.906 33.6991C432.168 33.6991 416.705 50.6926 416.705 72.4386C416.705 91.9284 429.383 111.61 453.683 111.61C466.89 111.61 477.935 105.466 483.986 94.7126C484.995 92.9365 485.139 90.7763 484.418 88.9041L484.467 88.8561ZM435.242 59.5254C438.075 52.5168 444.366 48.3404 452.05 48.3404C460.791 48.3404 467.178 52.5168 469.435 59.7655C469.771 60.8216 469.579 61.9257 468.955 62.7897C468.33 63.6058 467.418 64.0859 466.361 64.0859H438.219C437.115 64.0859 436.154 63.5578 435.53 62.6457C434.906 61.7336 434.81 60.5335 435.194 59.4774L435.242 59.5254Z" fill="#004638"/>
<path d="M566.251 106.906C567.74 105.322 568.508 103.257 568.412 101.049C568.316 99.273 568.268 97.2568 568.268 95.0486V7.96872C568.268 3.55232 564.714 0 560.104 0C555.494 0 552.132 3.55232 552.132 7.96872V31.4909C552.132 33.459 551.124 35.2352 549.491 36.2913C547.906 37.2994 546.081 37.3954 544.448 36.6273C538.013 33.5551 529.561 33.171 520.004 35.4752C510.207 37.8274 502.571 44.9321 499.594 54.485C494.503 70.6144 496.328 86.8399 504.444 97.9289C510.783 106.57 520.436 111.322 531.674 111.322C540.366 111.322 547.906 107.722 552.564 101.529C552.564 101.673 552.564 101.769 552.564 101.865C552.756 106.09 556.262 109.354 560.536 109.354C562.745 109.354 564.81 108.49 566.347 106.858L566.251 106.906ZM552.276 72.1506C552.276 86.7919 544.496 96.6808 532.922 96.6808C521.349 96.6808 513.281 87.1759 513.281 72.4866C513.281 57.7973 521.253 48.7244 533.067 48.7244C544.88 48.7244 552.276 57.9413 552.276 72.1986V72.1506Z" fill="#004638"/>
<path d="M627.626 34.8032C627.002 34.7552 626.329 34.7072 625.609 34.7072C618.79 34.7072 612.883 37.0114 608.561 41.3318C608.032 41.8598 607.312 42.0038 606.64 41.7158C605.967 41.4278 605.535 40.8037 605.535 40.0836C605.535 38.0675 603.182 35.9073 598.86 35.9073H596.651C592.761 35.9073 589.543 39.0756 589.543 43.0119V101.241C589.543 105.754 593.193 109.402 597.707 109.402C602.221 109.402 605.871 105.754 605.871 101.241V72.5826C605.871 58.8533 612.018 51.8927 624.168 51.8927C625.081 51.8927 625.993 51.8927 626.954 51.9887C628.154 52.0847 629.259 51.6527 630.123 50.8846C630.988 50.0686 631.468 49.0125 631.468 47.8603V38.9795C631.468 36.8193 629.787 34.9952 627.674 34.8032H627.626Z" fill="#004638"/>
<path d="M651.831 109.402C656.297 109.402 659.899 105.802 659.899 101.337V44.0201C659.899 39.5557 656.297 35.9553 651.831 35.9553C647.364 35.9553 643.763 39.5557 643.763 44.0201V101.337C643.763 105.802 647.364 109.402 651.831 109.402Z" fill="#004638"/>
<path d="M689.097 109.402H689.385C693.755 109.402 697.309 105.85 697.309 101.481V89.5761C697.309 88.088 697.885 86.6959 698.942 85.6398L701.343 83.2396C702.496 82.0875 703.984 81.5114 705.665 81.6554C707.25 81.7994 708.739 82.5675 709.699 83.8636L726.219 106.186C727.708 108.202 730.109 109.402 732.607 109.402H733.183C736.208 109.402 738.946 107.722 740.29 105.034C741.635 102.345 741.347 99.129 739.522 96.7288L720.264 71.1425C718.632 68.9343 718.824 65.814 720.793 63.8938L735.296 49.5405C737.649 47.2363 738.321 43.924 737.073 40.8997C735.824 37.8754 732.991 36.0033 729.725 36.0033C727.612 36.0033 725.547 36.8674 724.058 38.4035L706.866 56.0211C704.945 57.9893 702.496 57.9413 700.815 57.2692C699.134 56.5971 697.357 54.869 697.357 52.1327V7.92072C697.309 3.55232 693.755 0 689.097 0C684.727 0 681.173 3.55232 681.173 7.92072V101.433C681.173 105.802 684.727 109.354 689.097 109.354V109.402Z" fill="#004638"/>
<path d="M131.922 16.8015C195.41 16.8015 247.036 68.4062 247.036 131.868C247.036 195.33 195.41 246.934 131.922 246.934C68.4343 246.934 16.8084 195.33 16.8084 131.868C16.8084 68.4062 68.4343 16.8015 131.922 16.8015ZM131.922 0C59.0696 0 0 59.0454 0 131.868C0 204.691 59.0696 263.736 131.922 263.736C204.775 263.736 263.844 204.691 263.844 131.868C263.844 59.0454 204.775 0 131.922 0Z" fill="#004638"/>
<path d="M73.6689 198.498C71.5078 198.498 69.3467 197.682 67.7139 196.05C64.4482 192.786 64.4482 187.457 67.7139 184.193L184.172 67.7822C187.438 64.5179 192.769 64.5179 196.034 67.7822C199.3 71.0465 199.3 76.375 196.034 79.6393L79.5758 196.05C77.943 197.682 75.7819 198.498 73.6208 198.498H73.6689Z" fill="#004638"/>
</svg>
